<?xml version="1.0" ?><!DOCTYPE svg  PUBLIC '-//W3C//DTD SVG 1.1//EN'  'http://www.w3.org/Graphics/SVG/1.1/DTD/svg11.dtd'><svg enable-background="new 0 0 512 512" height="512px" id="Layer_1" version="1.1" viewBox="0 0 512 512" width="512px" xml:space="preserve" xmlns="http://www.w3.org/2000/svg" xmlns:xlink="http://www.w3.org/1999/xlink"><g><g><path d="M376.289,480.643H135.711c-12.131,0-22-9.869-22-22v-337.76c0-12.131,9.869-22,22-22h64.959c5.522,0,10,4.478,10,10v11.33    c0,1.103,0.897,2,2,2h86.66c1.103,0,2-0.897,2-2v-11.33c0-5.522,4.478-10,10-10h64.959c12.131,0,22,9.869,22,22v337.76    C398.289,470.773,388.42,480.643,376.289,480.643z M135.711,118.883c-1.103,0-2,0.897-2,2v337.76c0,1.103,0.897,2,2,2h240.578    c1.103,0,2-0.897,2-2v-337.76c0-1.103-0.897-2-2-2H321.33v1.33c0,12.131-9.869,22-22,22h-86.66c-12.131,0-22-9.869-22-22v-1.33    H135.711z"/></g><g><path d="M299.33,142.213h-86.66c-12.131,0-22-9.869-22-22v-22.67c0-12.131,9.869-22,22-22h86.66c12.131,0,22,9.869,22,22v22.67    C321.33,132.344,311.461,142.213,299.33,142.213z M212.67,95.543c-1.103,0-2,0.897-2,2v22.67c0,1.103,0.897,2,2,2h86.66    c1.103,0,2-0.897,2-2v-22.67c0-1.103-0.897-2-2-2H212.67z"/></g><g><path d="M256,95.543c-17.696,0-32.094-14.397-32.094-32.094c0-17.695,14.397-32.092,32.094-32.092s32.094,14.396,32.094,32.092    C288.094,81.146,273.696,95.543,256,95.543z M256,51.357c-6.669,0-12.094,5.425-12.094,12.092c0,6.669,5.425,12.094,12.094,12.094    s12.094-5.425,12.094-12.094C268.094,56.782,262.669,51.357,256,51.357z"/></g><g><path d="M209.296,252.484c-1.592,0-3.189-0.38-4.652-1.148l-16.552-8.702l-16.549,8.702c-3.371,1.77-7.452,1.477-10.532-0.761    c-3.079-2.237-4.621-6.029-3.979-9.781l3.161-18.43l-13.389-13.054c-2.726-2.657-3.706-6.631-2.53-10.251    c1.177-3.619,4.306-6.258,8.072-6.806l18.503-2.688l8.274-16.767c1.685-3.413,5.161-5.574,8.968-5.574    c3.806,0,7.282,2.16,8.967,5.573l8.277,16.768l18.505,2.688c3.767,0.548,6.896,3.187,8.072,6.807    c1.176,3.619,0.195,7.594-2.53,10.25l-13.391,13.054l3.161,18.43c0.643,3.752-0.899,7.543-3.979,9.78    C213.433,251.84,211.369,252.484,209.296,252.484z M188.092,221.336c1.599,0,3.197,0.383,4.653,1.148l3.271,1.72l-0.625-3.641    c-0.556-3.244,0.52-6.554,2.876-8.851l2.646-2.58l-3.657-0.531c-3.257-0.474-6.072-2.52-7.528-5.47l-1.636-3.313l-1.635,3.313    c-1.457,2.951-4.272,4.997-7.529,5.471l-3.657,0.531l2.646,2.58c2.356,2.297,3.432,5.606,2.876,8.851l-0.624,3.64l3.268-1.719    C184.895,221.719,186.493,221.336,188.092,221.336z"/></g><g><path d="M209.296,347.465c-1.592,0-3.189-0.38-4.652-1.148l-16.552-8.702l-16.549,8.702c-3.371,1.77-7.452,1.477-10.532-0.761    c-3.079-2.237-4.621-6.029-3.979-9.781l3.161-18.43l-13.389-13.052c-2.726-2.656-3.706-6.63-2.53-10.25    c1.177-3.62,4.306-6.259,8.072-6.807l18.503-2.688l8.274-16.769c1.685-3.413,5.161-5.574,8.968-5.574    c3.806,0,7.282,2.161,8.967,5.574l8.277,16.769l18.505,2.688c3.767,0.548,6.896,3.187,8.072,6.807    c1.176,3.62,0.195,7.594-2.53,10.251l-13.39,13.051l3.16,18.43c0.643,3.752-0.899,7.543-3.979,9.78    C213.433,346.82,211.369,347.465,209.296,347.465z M188.092,316.316c1.599,0,3.197,0.383,4.653,1.148l3.271,1.72l-0.625-3.641    c-0.556-3.244,0.52-6.554,2.876-8.852l2.646-2.577l-3.656-0.531c-3.257-0.474-6.072-2.52-7.528-5.471l-1.636-3.313l-1.635,3.313    c-1.457,2.951-4.272,4.997-7.529,5.471l-3.655,0.531l2.645,2.578c2.356,2.297,3.432,5.606,2.876,8.851l-0.624,3.64l3.268-1.719    C184.895,316.699,186.493,316.316,188.092,316.316z"/></g><g><path d="M209.296,442.447c-1.592,0-3.189-0.38-4.652-1.148l-16.552-8.702l-16.549,8.702c-3.371,1.77-7.452,1.477-10.532-0.761    c-3.079-2.237-4.621-6.029-3.979-9.781l3.161-18.43l-13.389-13.052c-2.726-2.656-3.706-6.63-2.53-10.25    c1.177-3.62,4.306-6.259,8.072-6.807l18.503-2.688l8.274-16.769c1.685-3.413,5.161-5.574,8.968-5.574    c3.806,0,7.282,2.161,8.967,5.574l8.277,16.769l18.505,2.688c3.767,0.548,6.896,3.187,8.072,6.807    c1.176,3.62,0.195,7.594-2.53,10.251l-13.39,13.051l3.16,18.43c0.643,3.752-0.899,7.543-3.979,9.78    C213.433,441.803,211.369,442.447,209.296,442.447z M188.092,411.299c1.599,0,3.197,0.383,4.653,1.148l3.271,1.72l-0.625-3.641    c-0.556-3.244,0.52-6.554,2.876-8.852l2.646-2.577l-3.656-0.531c-3.257-0.474-6.072-2.52-7.528-5.471l-1.636-3.313l-1.635,3.313    c-1.457,2.951-4.272,4.997-7.529,5.471l-3.655,0.531l2.645,2.578c2.356,2.297,3.432,5.606,2.876,8.851l-0.624,3.64l3.268-1.719    C184.895,411.682,186.493,411.299,188.092,411.299z"/></g><g><path d="M351.002,217.004H256c-5.522,0-10-4.478-10-10s4.478-10,10-10h95.002c5.522,0,10,4.478,10,10    S356.524,217.004,351.002,217.004z"/></g><g><path d="M311.33,249.67H256c-5.522,0-10-4.478-10-10s4.478-10,10-10h55.33c5.522,0,10,4.478,10,10S316.853,249.67,311.33,249.67z"/></g><g><path d="M351.002,305.67H256c-5.522,0-10-4.478-10-10s4.478-10,10-10h95.002c5.522,0,10,4.478,10,10    S356.524,305.67,351.002,305.67z"/></g><g><path d="M311.33,338.336H256c-5.522,0-10-4.478-10-10s4.478-10,10-10h55.33c5.522,0,10,4.478,10,10    S316.853,338.336,311.33,338.336z"/></g><g><path d="M351.002,393.484H256c-5.522,0-10-4.478-10-10s4.478-10,10-10h95.002c5.522,0,10,4.478,10,10    S356.524,393.484,351.002,393.484z"/></g><g><path d="M311.33,426.15H256c-5.522,0-10-4.478-10-10s4.478-10,10-10h55.33c5.522,0,10,4.478,10,10S316.853,426.15,311.33,426.15z"/></g></g></svg>