<?xml version="1.0" encoding="utf-8"?>
<!-- Generator: Adobe Illustrator 25.0.1, SVG Export Plug-In . SVG Version: 6.00 Build 0)  -->
<svg version="1.1" id="Layer_1" xmlns="http://www.w3.org/2000/svg" xmlns:xlink="http://www.w3.org/1999/xlink" x="0px" y="0px"
	 viewBox="0 0 24 24" style="enable-background:new 0 0 24 24;" xml:space="preserve">
<style type="text/css">
	.st0{fill:#8c7ae6;}
</style>
<g>
	<path class="st0" d="M17.8,19c0.1,0.2-0.2,0.5-0.4,0.3c-0.1-0.1-0.2-0.2-0.3-0.2c-1.6-1.2-3.2-2.3-4.8-3.5c-0.1,0-0.1,0.1-0.2,0.1
		c-1.7,1.2-3.3,2.4-5,3.6c-0.2,0.2-0.5-0.1-0.4-0.3c0-0.1,0.1-0.3,0.1-0.4C7.4,16.7,8,14.8,8.6,13c0,0-0.1-0.1-0.1-0.1
		c-1.7-1.2-3.3-2.4-5-3.6C3.3,9.1,3.3,8.7,3.6,8.7c0.1,0,0.3,0,0.4,0c2,0,4,0,5.9,0c0-0.1,0-0.1,0.1-0.2c0.6-1.9,1.3-3.9,1.9-5.8
		c0-0.1,0.1-0.2,0.2-0.2c0,0,0,0,0,0c0,0,0,0,0.1,0c0,0,0,0,0,0c0,0,0,0,0.1,0c0,0,0,0,0,0c0,0,0,0,0,0c0.1,0,0.1,0.1,0.1,0.2
		c0,0.1,0.1,0.2,0.1,0.4c0.6,1.9,1.2,3.8,1.8,5.6c0.1,0,0.1,0,0.2,0c2,0,4.1,0,6.1,0c0.3,0,0.4,0.4,0.1,0.5
		c-0.1,0.1-0.2,0.2-0.3,0.2c-1.6,1.2-3.2,2.3-4.8,3.5c0,0.1,0,0.1,0.1,0.2C16.5,15.1,17.2,17.1,17.8,19z M16.8,5.6
		c-0.2,0.6-0.4,1.1-0.5,1.7c0,0.1,0.1,0.2,0.2,0.2c0.5-0.3,0.9-0.7,1.4-1c0.5,0.3,0.9,0.7,1.4,1c0.1,0.1,0.3,0,0.2-0.2
		c-0.2-0.6-0.4-1.1-0.5-1.7c0.5-0.3,0.9-0.7,1.4-1c0.1-0.1,0.1-0.3-0.1-0.3c-0.6,0-1.2,0-1.7,0c-0.2-0.5-0.4-1.1-0.5-1.6
		c0,0,0,0,0,0c0,0,0,0,0,0c0,0,0,0,0,0c0,0,0,0,0-0.1c0,0,0,0,0,0c0,0,0,0,0,0c0,0,0,0,0,0c0,0,0,0,0,0c0,0,0,0,0,0c0,0,0,0,0,0
		c0,0,0,0,0,0c0,0,0,0,0,0c0,0,0,0,0,0c0,0,0,0,0,0c0,0,0,0,0,0.1c0,0,0,0,0,0s0,0,0,0c0,0,0,0,0,0c-0.2,0.5-0.4,1.1-0.5,1.6
		c-0.6,0-1.2,0-1.7,0c-0.2,0-0.2,0.2-0.1,0.3C15.9,5,16.4,5.3,16.8,5.6z M22.3,13.6c-0.6,0-1.2,0-1.7,0c-0.2-0.5-0.4-1.1-0.5-1.6
		c0,0,0,0,0,0c0,0,0,0,0,0c0,0,0,0,0,0c0,0,0,0,0-0.1c0,0,0,0,0,0c0,0,0,0,0,0c0,0,0,0,0,0c0,0,0,0,0,0c0,0,0,0,0,0c0,0,0,0,0,0
		c0,0,0,0,0,0c0,0,0,0,0,0c0,0,0,0,0,0c0,0,0,0,0,0c0,0,0,0,0,0.1c0,0,0,0,0,0c0,0,0,0,0,0c0,0,0,0,0,0c-0.2,0.5-0.4,1.1-0.5,1.6
		c-0.6,0-1.2,0-1.7,0c-0.2,0-0.2,0.2-0.1,0.3c0.5,0.3,0.9,0.7,1.4,1c-0.2,0.5-0.4,1.1-0.5,1.7c0,0.1,0.1,0.2,0.2,0.2
		c0.5-0.3,0.9-0.7,1.4-1c0.5,0.3,0.9,0.7,1.4,1c0.1,0.1,0.3,0,0.2-0.2c-0.2-0.6-0.4-1.1-0.5-1.7c0.5-0.3,0.9-0.7,1.4-1
		C22.4,13.8,22.4,13.6,22.3,13.6z M14.6,18.4c-0.6,0-1.2,0-1.7,0c-0.2-0.5-0.4-1.1-0.5-1.6c0,0,0,0,0,0c0,0,0,0,0,0c0,0,0,0,0,0
		c0,0,0,0,0-0.1c0,0,0,0,0,0c0,0,0,0,0,0c0,0,0,0,0,0c0,0,0,0,0,0c0,0,0,0,0,0c0,0,0,0,0,0c0,0,0,0,0,0c0,0,0,0,0,0c0,0,0,0,0,0
		c0,0,0,0,0,0c0,0,0,0,0,0.1c0,0,0,0,0,0c0,0,0,0,0,0c0,0,0,0,0,0c-0.2,0.5-0.4,1.1-0.5,1.6c-0.6,0-1.2,0-1.7,0
		c-0.2,0-0.2,0.2-0.1,0.3c0.5,0.3,0.9,0.7,1.4,1c-0.2,0.6-0.4,1.1-0.5,1.7c0,0.1,0.1,0.2,0.2,0.2c0.5-0.3,0.9-0.7,1.4-1
		c0.5,0.3,0.9,0.7,1.4,1c0.1,0.1,0.3,0,0.2-0.2c-0.2-0.5-0.4-1.1-0.5-1.7c0.5-0.3,0.9-0.7,1.4-1C14.8,18.6,14.8,18.4,14.6,18.4z
		 M6.6,13.9c0.1-0.1,0.1-0.3-0.1-0.3c-0.6,0-1.2,0-1.7,0c-0.2-0.5-0.4-1.1-0.5-1.6c0,0,0-0.1,0-0.1c0,0,0,0,0,0c0,0,0,0,0,0
		c0,0,0,0,0,0c0,0,0,0,0,0c0,0,0,0,0,0c0,0,0,0,0,0c0,0,0,0,0,0c0,0,0,0,0,0c0,0,0,0,0,0c0,0,0,0,0,0c0,0,0,0,0,0.1
		c-0.2,0.5-0.4,1.1-0.5,1.6c-0.6,0-1.2,0-1.7,0c-0.2,0-0.2,0.2-0.1,0.3c0.5,0.3,0.9,0.7,1.4,1c-0.2,0.5-0.4,1.1-0.5,1.7
		c0,0.1,0.1,0.2,0.2,0.2c0.5-0.3,0.9-0.7,1.4-1c0.5,0.3,0.9,0.7,1.4,1c0.1,0.1,0.3,0,0.2-0.2c-0.2-0.5-0.4-1.1-0.5-1.7
		C5.7,14.6,6.2,14.3,6.6,13.9z M6,5.6C5.8,6.2,5.6,6.7,5.5,7.3c0,0.1,0.1,0.2,0.2,0.2c0.5-0.3,0.9-0.7,1.4-1c0.5,0.3,0.9,0.7,1.4,1
		c0.1,0.1,0.3,0,0.2-0.2C8.5,6.7,8.4,6.2,8.2,5.6c0.5-0.3,0.9-0.7,1.4-1c0.1-0.1,0.1-0.3-0.1-0.3c-0.6,0-1.2,0-1.7,0
		C7.6,3.8,7.4,3.3,7.2,2.7c0,0,0,0,0,0c0,0,0,0,0,0c0,0,0,0,0,0c0,0,0,0,0-0.1c0,0,0,0,0,0c0,0,0,0,0,0c0,0,0,0,0,0c0,0,0,0,0,0
		c0,0,0,0,0,0c0,0,0,0,0,0c0,0,0,0,0,0c0,0,0,0,0,0c0,0,0,0,0,0c0,0,0,0,0,0c0,0,0,0,0,0c0,0,0,0,0,0c0,0,0,0,0,0c0,0,0,0,0,0
		C6.8,3.3,6.6,3.8,6.4,4.4c-0.6,0-1.2,0-1.7,0c-0.2,0-0.2,0.2-0.1,0.3C5.1,5,5.5,5.3,6,5.6z"/>
</g>
</svg>
