<?xml version="1.0" encoding="utf-8"?>
<!-- Generator: Adobe Illustrator 25.0.1, SVG Export Plug-In . SVG Version: 6.00 Build 0)  -->
<svg version="1.1" id="Layer_1" xmlns="http://www.w3.org/2000/svg" xmlns:xlink="http://www.w3.org/1999/xlink" x="0px" y="0px"
	 viewBox="0 0 1000 1000" style="enable-background:new 0 0 1000 1000;" xml:space="preserve">
<style type="text/css">
	.st0{fill:#F44336;}
</style>
<path class="st0" d="M191.7,581.4c-32,0.1-63.9,0.1-95.9,0c-23.9,0-33.3-9.4-33.3-33.2V127.6c0-21.5,10.4-32,31.8-32.1
	c32.6-0.2,65.3-0.1,97.9,0c22,0.1,32.3,10.5,32.3,32.6c0.1,140.2,0.1,280.4,0,420.6C224.6,572.1,215.2,581.3,191.7,581.4z
	 M831.8,609.9H563.1c0.2,2.1,0.4,3.7,0.8,5.2c10.4,50.2,18.9,100.7,19.1,152.2c0.2,32.8-2.1,65.2-16.3,95.4
	c-8.8,19-21.1,34.9-42.7,40.5c-22.3,5.8-38.8-2.8-42.4-22.3c-2.5-14.1-5-28.1-6.6-42.3c-3.3-31.7-11.7-61.2-33.9-85.4
	c-12.7-14.1-24.1-29.5-37.3-43.1c-31.5-32.7-56.4-69.7-73.8-111.7c-3.5-8.3-7.8-16.1-12.3-23.9c-7.6-13.3-19.5-19.4-34.5-20.3
	c-15.8-0.9-23.8-6.5-28.4-21.7c-2.1-7.3-2.8-15.1-2.8-22.7c-0.2-114.3-0.1-228.6-0.1-342.9c0-5.9,0.3-11.9,1.2-17.9
	c2.8-17.6,13.7-26.7,31.4-26.8c7-0.1,14.1-0.2,21.1-0.6c27.2-1.3,54.1-4.7,80.8-11.2c27.5-6.7,54.7-15.4,83.5-15.4h222.8
	c1.7,0,3.3,0,5,0.1c51.1,2.6,92,44.3,93.3,95.8c27.3,19.1,45.4,50.8,45.4,86.7v1.9c0,2.9-0.2,5.8-0.4,8.7c3.5,2.6,6.8,5.2,9.9,8.1
	c20.8,19.3,33.8,46.8,33.8,77.5v1.9c0,10.5-1.6,20.5-4.5,30.1c36.6,16.6,62.2,53.4,62.2,96.2v1.9
	C937.5,562.6,890.2,609.9,831.8,609.9z"/>
</svg>
